<?xml version="1.0" encoding="utf-8"?>
<!-- Generator: Adobe Illustrator 19.2.1, SVG Export Plug-In . SVG Version: 6.00 Build 0)  -->
<svg version="1.1" id="layer" xmlns="http://www.w3.org/2000/svg" xmlns:xlink="http://www.w3.org/1999/xlink" x="0px" y="0px"
	 viewBox="0 0 652 652" style="enable-background:new 0 0 652 652;" xml:space="preserve">
<style type="text/css">
	.st0{fill:#FFFFFF;}
	.st1{fill:#E62644;}
	.st2{fill:#FCBF00;}
	.st3{fill:#004996;}
</style>
<path class="st0" d="M120.2,280.1c-0.8,0-1.5-0.7-1.5-1.5s0.7-1.5,1.5-1.5s1.5,0.7,1.5,1.5S121,280.1,120.2,280.1z M32.6,348.6
	c0-32.7,26.9-59.3,59.7-59.3s59.7,26.6,59.7,59.3c0,32.6-26.9,59.3-59.7,59.3S32.6,381.2,32.6,348.6z M115.8,258
	c1.4,0.4,2.3,1.8,1.9,3.2c-0.4,1.4-1.8,2.3-3.2,1.9c-1.4-0.4-2.3-1.8-1.9-3.2C112.9,258.5,114.4,257.7,115.8,258z M118.2,252.8
	c0.8,0,1.5,0.7,1.5,1.5c0,0.8-0.7,1.5-1.5,1.5s-1.5-0.7-1.5-1.5C116.7,253.5,117.4,252.8,118.2,252.8z M117,247.5
	c0.8,0,1.5,0.7,1.5,1.5c0,0.8-0.7,1.5-1.5,1.5s-1.5-0.7-1.5-1.5C115.5,248.2,116.2,247.5,117,247.5z M135.3,261.4
	c0.8,0,1.5,0.7,1.5,1.5c0,0.8-0.7,1.5-1.5,1.5c-0.8,0-1.5-0.7-1.5-1.5C133.9,262.1,134.5,261.4,135.3,261.4z M134.1,256.2
	c0.8,0,1.5,0.7,1.5,1.5c0,0.8-0.7,1.5-1.5,1.5c-0.8,0-1.5-0.7-1.5-1.5C132.6,256.9,133.3,256.2,134.1,256.2z M131.9,251.6
	c0.8,0,1.5,0.7,1.5,1.5c0,0.8-0.7,1.4-1.5,1.4c-0.8,0-1.5-0.7-1.5-1.5C130.4,252.2,131.1,251.6,131.9,251.6z M128.4,247.5
	c0.8,0,1.5,0.7,1.5,1.5s-0.7,1.5-1.5,1.5c-0.8,0-1.5-0.7-1.5-1.5S127.5,247.5,128.4,247.5z M124.1,244.3c0.8,0,1.5,0.7,1.5,1.5
	s-0.7,1.5-1.5,1.5s-1.5-0.7-1.5-1.5S123.2,244.3,124.1,244.3z M119.4,242.5c0.8,0,1.5,0.7,1.5,1.5c0,0.8-0.7,1.5-1.5,1.5
	s-1.5-0.7-1.5-1.5C117.9,243.2,118.6,242.5,119.4,242.5z M114.7,242.9c0.8,0,1.5,0.7,1.5,1.5c0,0.8-0.7,1.5-1.5,1.5
	s-1.5-0.7-1.5-1.5C113.2,243.6,113.8,242.9,114.7,242.9C114.6,242.9,114.6,242.9,114.7,242.9z M111.2,238.9c0.8,0,1.5,0.7,1.5,1.5
	c0,0.8-0.7,1.5-1.5,1.5s-1.5-0.7-1.5-1.5C109.7,239.6,110.4,238.9,111.2,238.9z M106.6,235.9c0.8,0,1.5,0.7,1.5,1.5
	c0,0.8-0.7,1.5-1.5,1.5c-0.8,0-1.5-0.7-1.5-1.5C105.1,236.6,105.8,235.9,106.6,235.9z M101.9,234.2c0.8,0,1.5,0.7,1.5,1.5
	s-0.7,1.5-1.5,1.5c-0.8,0-1.5-0.7-1.5-1.5C100.4,234.8,101.1,234.2,101.9,234.2z M97.1,233.4c0.8,0,1.5,0.7,1.5,1.5
	c0,0.8-0.7,1.5-1.5,1.5s-1.5-0.7-1.5-1.5C95.6,234,96.2,233.4,97.1,233.4z M51.2,272.1c-1.3,0.7-2.9,0.2-3.6-1
	c-0.7-1.3-0.2-2.9,1.1-3.6c1.3-0.7,2.9-0.2,3.6,1.1C53,269.8,52.5,271.4,51.2,272.1z M70.2,263.1c-1.4,0.4-2.9-0.5-3.2-1.9
	c-0.4-1.4,0.5-2.9,1.9-3.2c1.4-0.4,2.9,0.5,3.2,1.9C72.5,261.3,71.7,262.8,70.2,263.1z M92.4,260.4c-1.5,0-2.7-1.2-2.7-2.6
	c0-1.4,1.2-2.6,2.7-2.6c1.5,0,2.7,1.2,2.7,2.6C95,259.2,93.8,260.4,92.4,260.4z M66.5,255.8c-0.8,0-1.5-0.7-1.5-1.5s0.7-1.5,1.5-1.5
	c0.8,0,1.5,0.7,1.5,1.5C68,255.1,67.3,255.8,66.5,255.8z M67.7,250.5c-0.8,0-1.5-0.7-1.5-1.5s0.7-1.5,1.5-1.5c0.8,0,1.5,0.7,1.5,1.5
	S68.5,250.5,67.7,250.5z M49.4,264.4c-0.8,0-1.5-0.7-1.5-1.5c0-0.8,0.7-1.5,1.5-1.5c0.8,0,1.5,0.7,1.5,1.5
	C50.9,263.7,50.2,264.4,49.4,264.4z M50.6,259.1c-0.8,0-1.5-0.7-1.5-1.5c0-0.8,0.7-1.5,1.5-1.5c0.8,0,1.5,0.7,1.5,1.5
	C52.1,258.5,51.4,259.1,50.6,259.1z M52.8,254.5c-0.8,0-1.5-0.7-1.5-1.5s0.7-1.5,1.5-1.5c0.8,0,1.5,0.7,1.5,1.5
	S53.6,254.5,52.8,254.5z M56.3,250.4c-0.8,0-1.5-0.7-1.5-1.5c0-0.8,0.7-1.5,1.5-1.5c0.8,0,1.5,0.7,1.5,1.5
	C57.8,249.7,57.1,250.4,56.3,250.4z M60.7,247.3c-0.8,0-1.5-0.7-1.5-1.5c0-0.8,0.7-1.5,1.5-1.5c0.8,0,1.5,0.7,1.5,1.5
	C62.2,246.6,61.5,247.3,60.7,247.3z M65.3,245.5c-0.8,0-1.5-0.7-1.5-1.5c0-0.8,0.7-1.5,1.5-1.5s1.5,0.7,1.5,1.5
	C66.8,244.8,66.1,245.5,65.3,245.5z M70.1,245.9c-0.8,0-1.5-0.7-1.5-1.5c0-0.8,0.7-1.5,1.5-1.5s1.5,0.7,1.5,1.5
	C71.5,245.2,70.9,245.9,70.1,245.9z M73.6,241.9c-0.8,0-1.5-0.7-1.5-1.5s0.7-1.5,1.5-1.5s1.5,0.7,1.5,1.5
	C75,241.2,74.4,241.9,73.6,241.9z M78.1,238.9c-0.8,0-1.5-0.7-1.5-1.5c0-0.8,0.7-1.5,1.5-1.5c0.8,0,1.5,0.7,1.5,1.5
	C79.6,238.2,78.9,238.9,78.1,238.9z M82.8,237.1c-0.8,0-1.5-0.7-1.5-1.5c0-0.8,0.7-1.5,1.5-1.5c0.8,0,1.5,0.7,1.5,1.5
	C84.3,236.5,83.6,237.1,82.8,237.1z M92.4,251.6c-0.8,0-1.5-0.7-1.5-1.5s0.7-1.5,1.5-1.5c0.8,0,1.5,0.7,1.5,1.5
	C93.8,250.9,93.2,251.6,92.4,251.6z M92.4,246.2c-0.8,0-1.5-0.7-1.5-1.5s0.7-1.5,1.5-1.5c0.8,0,1.5,0.7,1.5,1.5
	S93.2,246.2,92.4,246.2z M92.4,240.9c-0.8,0-1.5-0.7-1.5-1.5c0-0.8,0.7-1.5,1.5-1.5c0.8,0,1.5,0.7,1.5,1.5
	C93.8,240.2,93.2,240.9,92.4,240.9z M87.7,236.3c-0.8,0-1.5-0.7-1.5-1.5c0-0.8,0.7-1.5,1.5-1.5c0.8,0,1.5,0.7,1.5,1.5
	C89.1,235.6,88.5,236.3,87.7,236.3z M136.1,267.5c1.3,0.7,1.8,2.3,1.1,3.6c-0.7,1.3-2.3,1.7-3.6,1c-1.3-0.7-1.8-2.3-1.1-3.6
	C133.1,267.2,134.7,266.8,136.1,267.5z M101.9,275.2c-0.8,0-1.5-0.7-1.5-1.5c0-0.8,0.7-1.5,1.5-1.5c0.8,0,1.5,0.7,1.5,1.5
	C103.3,274.5,102.7,275.2,101.9,275.2z M64.5,280.1c-0.8,0-1.5-0.7-1.5-1.5s0.7-1.5,1.5-1.5c0.8,0,1.5,0.7,1.5,1.5
	S65.3,280.1,64.5,280.1z M82.8,275.2c-0.8,0-1.5-0.7-1.5-1.5c0-0.8,0.7-1.5,1.5-1.5s1.5,0.7,1.5,1.5
	C84.3,274.5,83.6,275.2,82.8,275.2z"/>
<path class="st1" d="M103.4,264.6c0.4,0.9,0.9,1.6,1.5,2.1c-1.3-0.2-2.7-0.4-4.1-0.5c0.8-0.4,1.4-1,1.9-1.7
	C102.9,264.5,103.2,264.6,103.4,264.6z M81.3,264.6c0.2,0,0.5,0,0.7-0.1c0.5,0.7,1.2,1.3,1.9,1.7c-1.4,0.1-2.7,0.3-4.1,0.5
	C80.5,266.1,81,265.4,81.3,264.6z M73.4,268c-1.2,0.3-2.4,0.6-3.6,0.9c0.6-0.8,1-1.8,1.2-2.9C71.6,266.9,72.4,267.5,73.4,268z
	 M59.8,272.4c0.4-0.6,0.6-1.2,0.8-1.9l0.2,0c0.4-0.1,0.7-0.2,1-0.4c0.6,0.4,1.2,0.7,1.8,0.8C62.3,271.4,61,271.9,59.8,272.4z
	 M92.4,263.3c0.4,1,1,1.9,1.9,2.5c-0.6,0-1.2,0-1.9,0c-0.6,0-1.2,0-1.9,0C91.3,265.2,92,264.3,92.4,263.3z M123,270.1
	c0.3,0.2,0.6,0.4,1,0.4l0.2,0c0.1,0.7,0.4,1.3,0.8,1.9c-1.2-0.5-2.5-1-3.8-1.5C121.8,270.7,122.4,270.4,123,270.1z M114.9,268.9
	c-1.2-0.3-2.4-0.6-3.6-0.9c1-0.4,1.8-1.1,2.4-1.9C113.8,267.1,114.2,268,114.9,268.9z M119.5,257.3c1-0.4,1.8-1.3,2-2.4
	c1.6,0.4,3.4,0.8,4.9,1.4c1.4,0.5,2.5,1.3,3.2,1.9c0.8,2,1.3,4.4,1.5,7.3c-1,0.4-1.6,1.4-1.9,2.4c-0.6,1.5-0.6,3.1,1.1,4.2
	c-1.4,0.1-2.7-1-2.8-2.4c0-0.1,0-0.2,0-0.3c0.3-0.4,0.5-0.8,0.7-1.3c0.4-1.8-0.6-3.6-2.4-4c-1.8-0.4-3.6,0.6-4,2.4l0,0
	c0,0.2-0.1,0.4-0.1,0.6c-1.5,1.8-4.6,0.9-4.7-1.5c2.8,0.6,4-0.8,4.4-2.7c0.4-1.6,0.2-3.1-1.6-4.1
	C119.7,258.2,119.7,257.8,119.5,257.3z"/>
<path class="st1" d="M72.2,250.8c5.3-2.9,12.2-3.5,17.6-2.6v0.4c-0.8,1.2-0.5,2.9,0.6,3.8c-1,0.4-1.8,1.1-2.1,2.4
	c-2,0.5-2.5,2-2.5,3.6c0,1.9,0.8,3.6,3.6,3.7c0.5,1.4-0.2,2.9-1.6,3.4c-1.4,0.5-2.9-0.2-3.4-1.6c-0.2-0.5-0.2-1.1,0-1.7
	c0.5-1.8-0.6-3.6-2.4-4.1c-0.3-0.1-0.6-0.1-0.9-0.1c-1.8,0-3.3,1.5-3.3,3.3c0,0.6,0.1,1.1,0.4,1.6c-0.1,1.1-0.8,2.1-2,2.4
	c-1.1,0.3-2.3-0.2-2.9-1.2c2.7-0.8,3.1-2.6,2.6-4.5c-0.4-1.6-1.3-2.9-3.4-2.9c-0.3-0.6-0.8-1.2-1.5-1.5
	C71.4,253.7,71.7,252.2,72.2,250.8z M94.8,248.1c5.4-0.8,12.3-0.3,17.6,2.6c0.5,1.4,0.8,2.9,1,4.4c-0.6,0.3-1.1,0.8-1.5,1.5
	c-2.1,0-3,1.3-3.4,2.9c-0.5,1.9-0.1,3.7,2.6,4.5c0.1,1.5-1,2.7-2.5,2.8c-1.5,0.1-2.7-1-2.8-2.5c0-0.5,0.1-1.1,0.4-1.5
	c0.2-0.5,0.4-1,0.4-1.6c0-1.8-1.5-3.3-3.3-3.3c-1.8,0-3.3,1.5-3.3,3.3c0,0.3,0,0.6,0.1,0.8c-0.5,1.4-2,2.1-3.4,1.6
	c-0.8-0.3-1.4-0.9-1.6-1.7c2.9-0.1,3.6-1.8,3.6-3.7c0-1.6-0.6-3.1-2.5-3.6c-0.3-1.3-1.1-2-2.1-2.4c1.2-0.9,1.4-2.6,0.6-3.8
	L94.8,248.1L94.8,248.1z M58.4,256.3c1.4-0.6,3.3-1.1,4.9-1.4c0.2,1.1,1,2,2,2.4c-0.1,0.4-0.2,0.8-0.2,1.3c-1.8,1-2,2.5-1.6,4.1
	c0.5,1.9,1.7,3.3,4.4,2.7c-0.1,2.4-3.2,3.4-4.7,1.5c0-0.2,0-0.4-0.1-0.6c-0.5-1.8-2.3-2.8-4.1-2.4c-1.8,0.4-2.8,2.2-2.4,4
	c0.1,0.5,0.4,1,0.7,1.3c0.1,1-0.5,1.9-1.4,2.4c-0.5,0.2-1,0.4-1.4,0.3c1.7-1.2,1.6-2.7,1.1-4.2c-0.4-1-1-2-2-2.4
	c0.2-2.9,0.7-5.2,1.5-7.2C55.9,257.6,57,256.9,58.4,256.3z M97.1,273.3l-4.8,1.8l-4.8-1.8l4.8-1.8L97.1,273.3z M61.4,279.7l-0.4,1.7
	l-0.2,0.6l-0.4-0.2l-1.6-0.8l0.4-1.6l0.1-0.4l0.6,0.2C59.9,279.1,61.4,279.7,61.4,279.7z M123.4,279.7l2-0.7l0.1,0.4l0.4,1.6
	l-1.6,0.8l-0.3,0.2l-0.2-0.6L123.4,279.7z"/>
<path class="st2" d="M114.9,268.9c-0.6-0.8-1-1.8-1.2-2.9c-0.6,0.9-1.4,1.6-2.4,1.9C112.5,268.2,113.7,268.5,114.9,268.9z
	 M123,270.1c-0.6,0.4-1.2,0.7-1.8,0.8c1.3,0.5,2.5,1,3.8,1.5c-0.4-0.6-0.6-1.2-0.8-1.9l-0.2,0C123.6,270.4,123.3,270.2,123,270.1z
	 M92.4,263.3c-0.4,1-1,1.9-1.9,2.5c0.6,0,1.2,0,1.9,0c0.6,0,1.2,0,1.9,0C93.4,265.2,92.8,264.3,92.4,263.3z M59.8,272.4
	c1.2-0.5,2.5-1,3.8-1.5c-0.7-0.2-1.3-0.5-1.8-0.8c-0.3,0.2-0.6,0.4-1,0.4l-0.2,0C60.4,271.2,60.1,271.8,59.8,272.4z M73.4,268
	c-1-0.4-1.8-1.1-2.4-1.9c-0.1,1.1-0.5,2-1.2,2.9C71,268.5,72.2,268.2,73.4,268z M81.3,264.6c-0.3,0.8-0.8,1.5-1.4,2.1
	c1.3-0.2,2.7-0.4,4.1-0.5c-0.8-0.4-1.4-1-1.9-1.7C81.8,264.5,81.6,264.6,81.3,264.6z M103.4,264.6c-0.2,0-0.5,0-0.7-0.1
	c-0.5,0.7-1.2,1.3-1.9,1.7c1.4,0.1,2.7,0.3,4.1,0.5c-0.6-0.6-1.1-1.2-1.4-2C103.4,264.7,103.4,264.6,103.4,264.6z M136.1,267.5
	c-1.3-0.7-2.9-0.2-3.6,1c0,0,0,0,0,0c-0.7,1.3-0.2,2.9,1.1,3.6s2.9,0.2,3.6-1C137.8,269.8,137.3,268.2,136.1,267.5z M115.8,258
	c-1.4-0.4-2.9,0.5-3.2,1.9c-0.4,1.4,0.5,2.9,1.9,3.2c1.4,0.4,2.9-0.5,3.2-1.9C118.1,259.8,117.2,258.4,115.8,258z M118.2,252.8
	c-0.8,0-1.5,0.7-1.5,1.5c0,0.8,0.7,1.5,1.5,1.5s1.5-0.7,1.5-1.5C119.7,253.5,119,252.8,118.2,252.8z M117,247.5
	c-0.8,0-1.5,0.7-1.5,1.5c0,0.8,0.7,1.5,1.5,1.5c0.8,0,1.5-0.7,1.5-1.5C118.5,248.2,117.8,247.6,117,247.5
	C117,247.5,117,247.5,117,247.5z M135.3,261.4c-0.8,0-1.5,0.7-1.5,1.5c0,0.8,0.7,1.5,1.5,1.5c0.8,0,1.5-0.7,1.5-1.5
	C136.8,262.1,136.2,261.4,135.3,261.4z M134.1,256.2c-0.8,0-1.5,0.7-1.5,1.5c0,0.8,0.7,1.5,1.5,1.5c0.8,0,1.5-0.7,1.5-1.5
	C135.6,256.9,134.9,256.2,134.1,256.2z M131.9,251.6c-0.8,0-1.5,0.7-1.5,1.5c0,0.8,0.7,1.4,1.5,1.4c0.8,0,1.5-0.7,1.5-1.5
	C133.4,252.2,132.7,251.6,131.9,251.6z M128.4,247.5c-0.8,0-1.5,0.7-1.5,1.5s0.7,1.5,1.5,1.5c0.8,0,1.5-0.7,1.5-1.5
	S129.2,247.5,128.4,247.5z M124.1,244.3c-0.8,0-1.5,0.7-1.5,1.5s0.7,1.5,1.5,1.5s1.5-0.7,1.5-1.5S124.9,244.3,124.1,244.3z
	 M119.4,242.5c-0.8,0-1.5,0.7-1.5,1.5c0,0.8,0.7,1.5,1.5,1.5s1.5-0.7,1.5-1.5C120.9,243.2,120.2,242.5,119.4,242.5z M114.7,242.9
	c-0.8,0-1.5,0.7-1.5,1.5c0,0.8,0.7,1.5,1.5,1.5s1.5-0.7,1.5-1.5C116.1,243.6,115.5,242.9,114.7,242.9z M111.2,238.9
	c-0.8,0-1.5,0.7-1.5,1.5c0,0.8,0.7,1.5,1.5,1.5s1.5-0.7,1.5-1.5C112.7,239.6,112,238.9,111.2,238.9z M106.6,235.9
	c-0.8,0-1.5,0.7-1.5,1.5c0,0.8,0.7,1.5,1.5,1.5c0.8,0,1.5-0.7,1.5-1.5C108.1,236.6,107.4,235.9,106.6,235.9z M101.9,234.2
	c-0.8,0-1.5,0.7-1.5,1.5s0.7,1.5,1.5,1.5c0.8,0,1.5-0.7,1.5-1.5S102.7,234.2,101.9,234.2z M97.1,233.4c-0.8,0-1.5,0.7-1.5,1.5
	c0,0.8,0.7,1.5,1.5,1.5s1.5-0.7,1.5-1.5C98.5,234,97.9,233.4,97.1,233.4z M51.2,272.1c1.3-0.7,1.8-2.3,1.1-3.6
	c-0.7-1.3-2.3-1.8-3.6-1.1c-1.3,0.7-1.8,2.3-1.1,3.6C48.3,272.3,49.9,272.8,51.2,272.1z M70.2,263.1c1.4-0.4,2.3-1.8,1.9-3.2
	c-0.4-1.4-1.8-2.3-3.2-1.9c-1.4,0.4-2.3,1.8-1.9,3.2C67.4,262.7,68.8,263.5,70.2,263.1z M92.4,260.4c1.5,0,2.7-1.2,2.7-2.6
	c0-1.4-1.2-2.6-2.7-2.6c-1.5,0-2.7,1.2-2.7,2.6C89.7,259.2,90.9,260.4,92.4,260.4z M66.5,255.8c0.8,0,1.5-0.7,1.5-1.5
	s-0.7-1.5-1.5-1.5c-0.8,0-1.5,0.7-1.5,1.5C65,255.1,65.7,255.8,66.5,255.8z M67.7,250.5c0.8,0,1.5-0.7,1.5-1.5s-0.7-1.5-1.5-1.5
	c-0.8,0-1.5,0.7-1.5,1.5S66.9,250.5,67.7,250.5z M49.4,264.4c0.8,0,1.5-0.7,1.5-1.5c0-0.8-0.7-1.5-1.5-1.5c-0.8,0-1.5,0.7-1.5,1.5
	C47.9,263.7,48.6,264.4,49.4,264.4z M50.6,259.1c0.8,0,1.5-0.7,1.5-1.5c0-0.8-0.7-1.5-1.5-1.5c-0.8,0-1.5,0.7-1.5,1.5
	C49.1,258.5,49.8,259.1,50.6,259.1z M52.8,254.5c0.8,0,1.5-0.7,1.5-1.5s-0.6-1.4-1.5-1.4c-0.8,0-1.5,0.7-1.5,1.5
	S52,254.5,52.8,254.5z M56.3,250.4c0.8,0,1.5-0.7,1.5-1.5c0-0.8-0.7-1.5-1.5-1.5s-1.5,0.7-1.5,1.5C54.8,249.7,55.5,250.4,56.3,250.4
	z M60.7,247.3c0.8,0,1.5-0.7,1.5-1.5c0-0.8-0.7-1.5-1.5-1.5s-1.5,0.7-1.5,1.5C59.2,246.6,59.8,247.3,60.7,247.3z M65.3,245.5
	c0.8,0,1.5-0.7,1.5-1.5c0-0.8-0.7-1.5-1.5-1.5c-0.8,0-1.5,0.7-1.5,1.5C63.8,244.8,64.5,245.5,65.3,245.5z M70.1,245.9
	c0.8,0,1.5-0.7,1.5-1.5c0-0.8-0.7-1.5-1.5-1.5c-0.8,0-1.5,0.7-1.5,1.5C68.6,245.2,69.2,245.9,70.1,245.9z M73.6,241.9
	c0.8,0,1.5-0.7,1.5-1.5s-0.7-1.5-1.5-1.5s-1.5,0.7-1.5,1.5C72,241.2,72.7,241.9,73.6,241.9z M78.1,238.9c0.8,0,1.5-0.7,1.5-1.5
	c0-0.8-0.7-1.5-1.5-1.5c-0.8,0-1.5,0.7-1.5,1.5C76.6,238.2,77.3,238.9,78.1,238.9z M82.8,237.1c0.8,0,1.5-0.7,1.5-1.5
	c0-0.8-0.7-1.5-1.5-1.5c-0.8,0-1.5,0.7-1.5,1.5C81.3,236.5,82,237.1,82.8,237.1z M92.4,251.6c0.8,0,1.5-0.7,1.5-1.5
	s-0.7-1.5-1.5-1.5c-0.8,0-1.5,0.7-1.5,1.5C90.9,250.9,91.6,251.6,92.4,251.6z M92.4,246.2c0.8,0,1.5-0.7,1.5-1.5s-0.7-1.5-1.5-1.5
	c-0.8,0-1.5,0.7-1.5,1.5S91.6,246.2,92.4,246.2z M92.4,240.9c0.8,0,1.5-0.7,1.5-1.5c0-0.8-0.7-1.5-1.5-1.5c-0.8,0-1.5,0.7-1.5,1.5
	C90.9,240.2,91.6,240.9,92.4,240.9z M87.7,236.3c0.8,0,1.5-0.7,1.5-1.5c0-0.8-0.7-1.5-1.5-1.5c-0.8,0-1.5,0.7-1.5,1.5
	C86.2,235.6,86.8,236.3,87.7,236.3z M128.4,272.4c1.2,0.7,2.2,0.4,3.4,0c-2-1-3-1.9-2.1-4.2c0.4-1.1,0.9-1.8,2-2.2
	c-0.7-9-3.2-13.3-11.5-17.4l-0.6,0.2c0,0.1,0,0.2,0,0.3c0,1.2-0.7,1.8-1.6,2.5c1.5,0.3,2.8,1,2.8,2.8c0,1.5-1,2.3-2.3,2.7
	c0.4,0.8,0.5,1.2,0.4,2.1c1.7,0.8,2,1.9,1.6,3.6c-0.6,2.4-2.1,2.7-4.4,2.1c-0.4,3.8,3.8,5.2,5.9,2.5c0-0.2,0-0.4,0.1-0.7
	c0.4-1.4,1.8-2.3,3.3-1.9c1.4,0.4,2.3,1.8,1.9,3.3c-0.1,0.5-0.4,0.8-0.7,1.2C126.6,270.5,127.2,271.7,128.4,272.4z M90,239.4
	c0-0.2,0-0.4,0-0.6c-10.8-0.8-18.5,6.5-19.6,16.8c1,0.4,1.3,0.8,1.8,1.7c1.9-0.1,2.7,0.6,3.1,2.4c0.6,2.4-0.6,3.4-2.9,4
	c0.7,1.6,2.1,2.6,4,2.2c1.5-0.4,2.4-1.7,2.4-3.1c-0.3-0.4-0.4-0.9-0.4-1.4c0-1.5,1.2-2.7,2.7-2.7c1.5,0,2.7,1.2,2.7,2.7
	c0,0.3-0.1,0.6-0.1,0.8c0.4,1.4,1.6,2.4,3.2,2.4c1.9,0,3-1.4,3.3-3.1c-2.4,0-3.8-0.6-3.8-3.1c0-1.8,0.6-2.7,2.5-3.1
	c0.4-2.2,1.6-2.4,3.4-2.6c1.9,0.3,3,0.5,3.4,2.6c1.8,0.4,2.5,1.3,2.5,3.1c0,2.5-1.4,3.1-3.8,3.1c0.3,1.7,1.4,3.1,3.3,3.1
	c1.5,0,2.7-1,3.1-2.4c-0.1-0.3-0.1-0.6-0.1-0.8c0-1.5,1.2-2.7,2.7-2.7c1.5,0,2.7,1.2,2.7,2.7c0,0.5-0.1,1-0.4,1.4
	c0,1.5,1,2.8,2.5,3.1c1.8,0.5,3.2-0.6,4-2.2c-2.3-0.6-3.5-1.6-2.9-4c0.5-1.7,1.3-2.5,3.1-2.4c0.5-1,0.8-1.4,1.8-1.7
	c-1.1-10.3-8.8-17.6-19.6-16.8c0,0.2,0.1,0.4,0.1,0.6c0,0.5-0.2,1-0.5,1.4v2.6c0.3,0.4,0.5,0.8,0.5,1.4c0,0.5-0.2,1-0.5,1.4l0.1,2.7
	c0.2,0.4,0.4,0.8,0.4,1.3c0,1.5-1.1,2-2.3,2.5c-1.2-0.5-2.3-1-2.3-2.5c0-0.5,0.2-1,0.5-1.4v-2.6c-0.3-0.4-0.5-0.9-0.5-1.4
	c0-0.5,0.2-1,0.5-1.4v-2.6C90.2,240.4,90,239.9,90,239.4z M55,268.1c0.9,2.3-0.1,3.2-2.1,4.2c1.2,0.4,2.2,0.7,3.4,0
	c1.2-0.7,1.8-1.9,1.7-3.2c-1-1.1-1-2.8,0-3.8c0.3-0.3,0.8-0.6,1.2-0.7c1.4-0.4,2.9,0.5,3.3,1.9c0.1,0.2,0.1,0.4,0.1,0.7
	c2,2.7,6.2,1.3,5.9-2.5c-2.3,0.6-3.8,0.3-4.4-2.1c-0.5-1.7-0.1-2.8,1.6-3.6c-0.1-1,0-1.3,0.4-2.1c-1.3-0.4-2.3-1.2-2.3-2.6
	c0-1.8,1.3-2.4,2.8-2.8c-0.9-0.7-1.6-1.3-1.6-2.5c0-0.1,0-0.2-0.6-0.4c-8.4,4.1-10.8,8.3-11.5,17.4C54.1,266.3,54.6,267.1,55,268.1z
	 M126.4,276.7c-10.3-4.8-21.9-7.6-34.1-7.6s-23.7,2.7-34,7.5c-0.7,0.3-1.4,0-1.8-0.7c-0.3-0.7,0-1.2,0.3-1.8
	c-2.1,0.6-3.7,0.6-5.5-0.8c-3.4,2.3-7.3-2.4-4.7-4.6c-1.2-1.5-1.3-3.2,0.5-4.3c-0.3-0.5-0.5-1-0.5-1.6c0-1.8,1.3-2.4,2.8-2.8
	c-0.8-0.7-1.6-1.3-1.6-2.5c0-1.8,1.4-2.5,3-2.7c-0.4-0.6-0.7-1.1-0.7-1.9c0-1.5,1.2-2.7,2.7-2.7c0.5,0,0.9,0.1,1.3,0.3
	c-0.3-0.6-0.5-1-0.5-1.7c0-1.5,1.2-2.7,2.7-2.7c0.7,0,1.2,0.2,1.8,0.6c0-0.3-0.1-0.7-0.1-1c0-1.5,1.2-2.7,2.7-2.7
	c0.8,0,1.3,0.3,1.9,0.7c0.3-1.4,1.1-2.5,2.7-2.5c1.2,0,1.9,0.6,2.5,1.6c0.6-0.7,1.2-1.2,2.3-1.2c0.4,0,0.8,0.1,1.2,0.2
	c-0.2-0.5-0.4-1-0.4-1.5c0-1.5,1.2-2.7,2.7-2.7c0.8,0,1.3,0.4,2,0.8c-0.1-0.3-0.2-0.7-0.2-1.1c0-1.5,1.2-2.7,2.7-2.7
	c0.8,0,1.3,0.4,2,0.8c0.3-1.4,1.1-2.6,2.7-2.6c1,0,1.6,0.5,2.2,1.1c0.5-1.1,1.3-1.9,2.6-1.9c0.4,0,0.7,0.1,1.1,0.2
	c0.9-0.8,1.7-1.3,2.8-1.6v-2.8h-2.3v-1.7h2.3v-2h1.8v2h2.3v1.7h-2.3v2.8c1.2,0.3,1.9,0.7,2.8,1.7c0.4-0.1,0.7-0.2,1.1-0.2
	c1.4,0,2.1,0.8,2.6,1.9c0.7-0.6,1.2-1.1,2.2-1.1c1.6,0,2.4,1.2,2.7,2.6c0.6-0.5,1.1-0.8,2-0.8c1.5,0,2.7,1.2,2.7,2.7
	c0,0.4-0.1,0.8-0.1,1.1c0.7-0.4,1.2-0.8,2-0.8c1.5,0,2.7,1.2,2.7,2.7c0,0.6-0.2,1-0.4,1.5c0.4-0.1,0.8-0.2,1.2-0.2
	c1,0,1.6,0.5,2.3,1.2c0.6-0.9,1.3-1.6,2.5-1.6c1.6,0,2.4,1.2,2.7,2.5c0.6-0.5,1.1-0.7,1.9-0.7c1.5,0,2.7,1.2,2.7,2.7
	c0,0.3-0.1,0.7-0.1,1c0.6-0.3,1.1-0.6,1.8-0.6c1.5,0,2.7,1.2,2.7,2.7c0,0.7-0.2,1.1-0.5,1.7c0.5-0.2,0.9-0.4,1.4-0.4
	c1.5,0,2.7,1.2,2.7,2.7c0,0.8-0.3,1.3-0.7,1.9c1.6,0.1,3,0.9,3,2.7c0,1.2-0.7,1.8-1.6,2.5c1.5,0.3,2.8,1,2.8,2.8
	c0,0.6-0.2,1.1-0.5,1.6c1.8,1.1,1.8,2.8,0.6,4.4c1.6,1.3,0.7,3.3-0.6,4.3c-1.3,1-2.7,1.2-4.2,0.2c-1.8,1.4-3.4,1.4-5.5,0.8l0.3,0.6
	C128.6,275.9,127.6,277.1,126.4,276.7z M61.9,279.4l-2.2-0.8l-0.2-0.4c-0.2,0.1-0.3,0.1-0.5,0.1c-0.6,0-0.6-0.6-0.2-0.7
	c10.2-4.8,21.5-7.4,33.5-7.4c12,0,23.4,2.6,33.5,7.4c0.3,0.1,0.4,0.8-0.2,0.7c-0.1,0-0.3,0-0.5-0.1l-0.2,0.4l-2.2,0.8l0.6,2.5
	l-0.2,0.4c1.2,0.5,0.4,1.3-0.1,1.1c-9.4-4.4-19.8-6.8-30.8-6.8c-11,0-21.5,2.4-30.8,6.8c-0.2,0.1-0.5,0-0.7-0.3
	c-0.1-0.3,0-0.5,0.2-0.6c0.1-0.1,0.2-0.1,0.4-0.2l-0.2-0.4C61.1,281.9,61.9,279.4,61.9,279.4z M74,277.5l4.7-3.2l-5.7-0.6l-4.7,3.2
	L74,277.5z M120.2,280.5c1.1,0,1.9-0.8,1.9-1.9c0-1.1-0.8-1.9-1.9-1.9c-1.1,0-1.9,0.8-1.9,1.9C118.3,279.7,119.2,280.5,120.2,280.5z
	 M82.8,275.6c1.1,0,1.9-0.8,1.9-1.9c0-1.1-0.8-1.9-1.9-1.9s-1.9,0.8-1.9,1.9C80.9,274.8,81.8,275.6,82.8,275.6z M64.5,280.5
	c1.1,0,1.9-0.8,1.9-1.9c0-1.1-0.8-1.9-1.9-1.9c-1.1,0-1.9,0.8-1.9,1.9C62.6,279.7,63.4,280.5,64.5,280.5z M101.9,275.6
	c1.1,0,1.9-0.8,1.9-1.9c0-1.1-0.8-1.9-1.9-1.9c-1.1,0-1.9,0.8-1.9,1.9C100,274.8,100.8,275.6,101.9,275.6z M110.6,277.5l5.7-0.6
	l-4.7-3.2l-5.7,0.6L110.6,277.5z M98.3,273.3l-6-2.2l-6,2.2l6,2.2L98.3,273.3z M30.6,348.6c0,33.7,27.8,61.3,61.8,61.3
	c34,0,61.8-27.6,61.8-61.3c0-33.8-27.8-61.3-61.8-61.3C58.4,287.2,30.6,314.7,30.6,348.6z M160.9,348.6c0,37.4-30.7,68-68.5,68
	s-68.5-30.6-68.5-68c0-37.5,30.7-68.1,68.5-68.1S160.9,311.1,160.9,348.6z M83.4,319.7l8.9,9.1l8.4-8.8c-2.9-0.8-5.7-1.3-8.8-1.4
	C89,318.4,86.1,319,83.4,319.7z M106.9,313.3l13.1-13.5c17,9.7,28.4,27.8,28.4,48.5c0,13.5-4.8,25.9-12.9,35.5l-6.1-6.1
	c6.9-8.4,11.4-16.7,11.4-30c0-14.2-7.5-30.1-19.4-38.3l-7.9,8c4.1,3,7.2,6,10,10.3l-6,5.2c-2.4-4.2-5.5-7.1-9.4-9.8l-15.7,16.4
	L76,323c-8.4,5.9-13.4,14.2-13.6,24.6c-0.3,13.8,8.7,23.4,21.4,27.6v-27.8H103v5.7H91.2v7.4h11.6v6.5H91.2v9.4
	c8.6,0.5,17.8-4.5,23.4-10.7l5.8,5.8c-7.4,8.5-18,12.8-29.2,12.9v8.5h-7.4v-9.5c-17-4.2-29.4-19-29.1-36.7
	c0.1-12.1,6.7-22.1,16.1-29.2l-8-8.2c-12.4,10.1-19,22.3-19.6,38.3c-0.4,14.1,6.9,25.4,11.5,30.2l-5.4,5.6
	c-8.3-9.6-13.2-21.5-13.2-35.1c0-20.6,11.4-38.7,28.3-48.4l13.3,13.8c4.7-1.8,9.6-2.8,14.7-2.8c5,0.1,9.4,1,14.1,2.8L106.9,313.3z"
	/>
<path class="st3" d="M162.9,348.6c0,38.5-31.7,70.1-70.5,70.1s-70.5-31.5-70.5-70.1c0-38.6,31.7-70.1,70.5-70.1
	S162.9,310,162.9,348.6z M160.9,348.6c0-37.5-30.7-68.1-68.5-68.1s-68.5,30.6-68.5,68.1c0,37.4,30.7,68,68.5,68
	S160.9,386,160.9,348.6z M32.6,348.6c0,32.6,26.9,59.3,59.7,59.3s59.7-26.7,59.7-59.3c0-32.7-26.9-59.3-59.7-59.3
	S32.6,315.9,32.6,348.6z M30.6,348.6c0-33.8,27.8-61.3,61.8-61.3c34,0,61.8,27.5,61.8,61.3c0,33.7-27.8,61.3-61.8,61.3
	C58.4,409.9,30.6,382.3,30.6,348.6z M99.6,335l33.4,34.2c3.8-6.2,5.7-12.6,5.7-21.4c0-15.4-8.7-29.4-17.1-35.6l-5,5.1
	c4,3.2,6.9,6.6,9.5,10.9l-9.3,8c-2.2-4.3-4.6-7.4-8.5-10.3C108.2,326,99.6,335,99.6,335z M141.9,378.4c-6,10.2-15.2,18.2-26.1,23
	l-5.4-5.5l-10.1-10.3c-2.3,0.5-4.7,0.8-7.1,0.9v8.6H81.7v-9.9c-17.4-4.7-29.3-20.8-29.1-38.3c0-2.9,0.4-5.8,1.2-8.5l-5.7-5.8
	c-1.7,4.7-2.6,9.8-2.9,15.2c-0.3,10.9,4.4,22.6,12.4,30.1l-8.3,8.4c-9.8-10.9-15.2-23.3-15.2-38.1c0-21.6,11.9-40.5,30.7-50.9
	l13.4,13.9c4.4-1.6,9.5-2.4,14.2-2.4c5,0.1,9.6,1,13.6,2.4l13.7-14.1c18.9,10.4,30.8,29.3,30.8,51.1
	C150.5,359.4,147.5,369.4,141.9,378.4z M81.7,366.8l-17.3-17.5c0.4,9.8,6.4,19,17.3,23.2V366.8z M106.9,313.3l-0.5,0.5
	c-4.7-1.8-9-2.7-14.1-2.8c-5,0-10,1-14.7,2.8L64.4,300c-16.8,9.7-28.3,27.8-28.3,48.4c0,13.6,4.9,25.4,13.2,35.1l5.4-5.4
	c-4.6-4.8-12-16.1-11.5-30.2c0.6-16,7.2-28.2,19.6-38.3l8,8.2c-9.5,7.1-16,17-16.1,29.2c-0.2,17.7,12.1,32.5,29.1,36.7v9.5h7.4v-8.5
	c11.2-0.1,21.8-4.4,29.2-12.9l-5.8-5.8c-5.6,6.2-14.8,11.1-23.4,10.7v-9.4h11.6v-6.5H91.1v-7.4h11.8v-5.7H83.6v27.8
	C71,371.2,62,361.6,62.3,347.8c0.2-10.4,5.2-18.8,13.6-24.6l16.3,16.7l15.7-16.4c4,2.7,7,5.6,9.4,9.8l6-5.2
	c-2.7-4.3-5.9-7.3-10-10.3l7.9-8c12,8.2,19.4,24.1,19.4,38.3c0,13.3-4.5,21.6-11.4,30l6.1,6.1c8.1-9.7,12.9-22,12.9-35.5
	c0-20.7-11.4-38.9-28.4-48.5L106.9,313.3L106.9,313.3z M83.4,319.7c2.8-0.6,5.6-1.3,8.5-1.2c3.1,0.1,5.9,0.6,8.8,1.4l-8.4,8.8
	C92.3,328.7,83.4,319.7,83.4,319.7z M87.4,320.9l4.8,4.9l4.5-4.7c-1.6-0.3-3.3-0.5-5-0.5C90.7,320.5,89.1,320.6,87.4,320.9z
	 M123.4,279.7l0.4,1.6l0.2,0.6l0.3-0.2l1.6-0.8l-0.4-1.6l-0.1-0.4L123.4,279.7z M126.4,276.7c1.2,0.4,2.2-0.8,1.7-1.9l-0.3-0.6
	c2.1,0.6,3.7,0.6,5.5-0.8c1.5,1,2.8,0.8,4.2-0.2c1.3-1,2.1-3,0.6-4.3c1.2-1.6,1.2-3.2-0.6-4.4c0.3-0.5,0.5-1,0.5-1.6
	c0-1.8-1.3-2.4-2.8-2.8c0.9-0.7,1.6-1.3,1.6-2.5c0-1.8-1.4-2.5-3-2.7c0.4-0.6,0.7-1.1,0.7-1.9c0-1.5-1.2-2.7-2.7-2.7
	c-0.5,0-0.9,0.1-1.3,0.3c0.3-0.6,0.5-1,0.5-1.7c0-1.5-1.2-2.7-2.7-2.7c-0.7,0-1.2,0.2-1.8,0.6c0-0.3,0.1-0.7,0.1-1
	c0-1.5-1.2-2.7-2.7-2.7l0,0c-0.8,0-1.3,0.3-1.9,0.7c-0.3-1.4-1.1-2.5-2.7-2.5c-1.2,0-1.9,0.6-2.5,1.6c-0.6-0.7-1.2-1.2-2.3-1.2
	c-0.4,0-0.8,0.1-1.2,0.2c0.2-0.5,0.4-1,0.4-1.5c0-1.5-1.2-2.7-2.7-2.7c-0.8,0-1.3,0.4-2,0.8c0.1-0.3,0.1-0.7,0.1-1.1
	c0-1.5-1.2-2.7-2.7-2.7l0,0c-0.8,0-1.3,0.4-2,0.8c-0.3-1.4-1.1-2.6-2.7-2.6c-1,0-1.6,0.5-2.2,1.1c-0.5-1.1-1.3-1.9-2.6-1.9
	c-0.4,0-0.7,0.1-1.1,0.2c-0.8-1-1.6-1.3-2.8-1.7v-2.8h2.3v-1.6h-2.3v-2h-1.8v2h-2.3v1.7h2.3v2.8c-1.2,0.3-1.9,0.7-2.7,1.7
	c-0.3-0.1-0.7-0.2-1.1-0.2c-1.4,0-2.1,0.8-2.6,1.9c-0.7-0.6-1.2-1.1-2.2-1.1c-1.7,0-2.4,1.2-2.7,2.6c-0.7-0.5-1.2-0.8-2-0.8
	c-1.5,0-2.7,1.2-2.7,2.7l0,0c0,0.4,0.1,0.8,0.2,1.1c-0.7-0.4-1.2-0.8-2-0.8c-1.5,0-2.7,1.2-2.7,2.7l0,0c0,0.6,0.2,1,0.4,1.5
	c-0.4-0.1-0.8-0.2-1.2-0.2c-1,0-1.6,0.5-2.3,1.2c-0.6-0.9-1.3-1.6-2.5-1.6c-1.6,0-2.4,1.2-2.7,2.5c-0.6-0.4-1.1-0.7-1.9-0.7
	c-1.5,0-2.7,1.2-2.7,2.7l0,0c0,0.3,0.1,0.7,0.1,1c-0.6-0.3-1.1-0.6-1.8-0.6c-1.5,0-2.7,1.2-2.7,2.7l0,0c0,0.7,0.2,1.1,0.5,1.7
	c-0.5-0.1-0.9-0.3-1.3-0.3c-1.5,0-2.7,1.2-2.7,2.7l0,0c0,0.8,0.3,1.3,0.7,1.9c-1.6,0.1-3,0.9-3,2.7c0,1.2,0.7,1.8,1.6,2.5
	c-1.5,0.3-2.8,1-2.8,2.8c0,0.6,0.2,1.1,0.5,1.6c-1.8,1.1-1.8,2.8-0.6,4.4c-2.6,2.1,1.3,6.8,4.7,4.6c1.8,1.4,3.4,1.4,5.5,0.8
	c-0.3,0.6-0.6,1.1-0.3,1.8c0.3,0.7,1.1,1,1.8,0.7c10.3-4.8,21.8-7.5,34-7.5S116.1,271.9,126.4,276.7z M61.4,279.7l-1.4-0.5l-0.6-0.2
	l-0.1,0.4l-0.4,1.6l1.6,0.8l0.4,0.2l0.1-0.6C60.9,281.3,61.4,279.7,61.4,279.7z M60.5,282.2l-2-1.1l0.5-2c-0.8-0.1-1.2-1-0.8-1.6
	c-0.9,0.1-1.7-0.3-2.1-1.1c-0.2-0.4-0.2-0.7-0.2-1.1c-1.6,0.3-3.2,0-4.5-1c-3.6,2.2-7.9-3-5.6-5.4c-1-1.6-0.8-3.5,0.6-4.5
	c-0.8-1.7-0.1-3.6,1.6-4.4c0.1,0,0.1-0.1,0.2-0.1c-0.6-0.6-0.9-1.4-0.8-2.2c0-1.6,1.1-2.9,2.5-3.2c-0.2-0.4-0.3-0.9-0.3-1.4
	c0-1.8,1.5-3.3,3.3-3.3l0.3,0c-0.4-1.8,0.6-3.5,2.4-4c0.3-0.1,0.6-0.1,0.8-0.1c0.4,0,0.7,0.1,1,0.1c0-1.8,1.5-3.3,3.3-3.3
	c0.6,0,1.1,0.1,1.5,0.4c0.6-1.7,2.5-2.6,4.3-2c0.6,0.2,1,0.5,1.4,1c0.6-0.5,1.3-0.8,2.2-0.8h0.2c-0.4-1.8,0.7-3.5,2.5-3.9
	c0.2-0.1,0.5-0.1,0.7-0.1c0.4,0,0.8,0.1,1.2,0.2c0-1.8,1.6-3.3,3.4-3.2c0.5,0,1.1,0.2,1.5,0.4c0.5-1.3,1.7-2.2,3.1-2.2
	c0.8,0,1.5,0.2,2,0.7c0.6-0.9,1.6-1.5,2.8-1.5c0.3,0,0.6,0,0.9,0.1c0.5-0.6,1.2-1,1.9-1.3l0.4-0.1v-1.8h-2.3v-2.9h2.3v-2h3.1v2h2.3
	v2.9h-2.3v1.7l0.4,0.1c0.7,0.3,1.4,0.7,1.9,1.3c0.3-0.1,0.6-0.1,0.9-0.1c1.2,0,2.2,0.6,2.8,1.5c0.6-0.4,1.3-0.7,2-0.7
	c1.4,0,2.6,0.9,3.1,2.2c0.5-0.2,1-0.4,1.6-0.4c1.8,0,3.3,1.4,3.3,3.2c1.7-0.7,3.6,0.1,4.3,1.8c0.2,0.4,0.2,0.8,0.2,1.2
	c0,0.2,0,0.5-0.1,0.7h0.2c0.8,0,1.6,0.3,2.2,0.8c0.6-0.7,1.5-1.2,2.6-1.2c1.4,0,2.6,0.9,3.1,2.2c1.6-0.9,3.6-0.3,4.4,1.3
	c0.3,0.5,0.4,1,0.4,1.6c0.3-0.1,0.7-0.1,1-0.1c1.8,0,3.3,1.5,3.3,3.3c0,0.3,0,0.6-0.1,0.8h0.3c1.8,0,3.3,1.5,3.3,3.3
	c0,0.5-0.1,1-0.3,1.4c1.4,0.4,2.5,1.7,2.5,3.2c0,0.8-0.3,1.6-0.8,2.2c1.7,0.7,2.5,2.6,1.9,4.3c0,0.1-0.1,0.1-0.1,0.2
	c1.3,1,1.6,2.9,0.6,4.5c1.5,1.5,0.2,3.9-1,4.9c-1.2,1-2.9,1.5-4.5,0.5c-1.3,0.9-2.9,1.3-4.5,1c0.2,1.3-1,2.5-2.3,2.3
	c0.4,0.6,0,1.5-0.8,1.6l0.5,2l-2,1.1c0.3,0.3,0.4,0.8,0.1,1.2c-0.2,0.6-0.9,0.9-1.5,0.6c0,0,0,0,0,0c-9.6-4.5-20-6.8-30.5-6.7
	c-10.9,0-21.2,2.4-30.5,6.7c-0.6,0.3-1.2,0-1.5-0.6C60.1,283,60.2,282.5,60.5,282.2z M61.9,279.4l-0.6,2.5l0.2,0.4
	c-0.1,0.1-0.2,0.1-0.4,0.2c-0.2,0.2-0.3,0.4-0.2,0.6c0.1,0.3,0.4,0.4,0.7,0.3c9.4-4.4,19.8-6.8,30.8-6.8s21.5,2.4,30.8,6.8
	c0.5,0.2,1.3-0.6,0.1-1.1l0.2-0.4l-0.6-2.5l2.2-0.8l0.2-0.4c0.2,0.1,0.3,0.1,0.5,0.1c0.6,0.1,0.6-0.6,0.2-0.7
	c-10.2-4.8-21.5-7.4-33.5-7.4s-23.4,2.6-33.5,7.4c-0.3,0.1-0.3,0.8,0.2,0.7c0.1,0,0.3,0,0.5-0.1l0.2,0.4
	C59.8,278.6,61.9,279.4,61.9,279.4z M112.3,250.2c-2.6-6.5-8.8-11.3-17-10.8c0,0.6-0.2,1.1-0.5,1.6v2.2c0.6,0.9,0.6,2.2,0,3.1v1.4
	C100.5,246.9,107.1,247.5,112.3,250.2z M94.8,248.5c0.8,1.2,0.5,2.9-0.6,3.8c1,0.4,1.8,1.1,2.1,2.4c2,0.5,2.5,2,2.5,3.6
	c0,1.9-0.8,3.6-3.6,3.7c-0.5,1.4,0.2,2.9,1.6,3.4c1.4,0.5,2.9-0.2,3.4-1.6c0.2-0.5,0.2-1.1,0-1.7c0-0.3-0.1-0.6-0.1-0.8
	c0-1.8,1.5-3.3,3.4-3.3c1.8,0,3.3,1.5,3.3,3.3c0,0.6-0.1,1.1-0.4,1.6c0.1,1.1,0.8,2.1,2,2.4c1.1,0.3,2.3-0.2,2.9-1.2
	c-2.7-0.8-3.1-2.6-2.6-4.5c0.4-1.6,1.3-2.9,3.4-2.9c0.4-0.7,0.9-1.2,1.5-1.5c-0.2-1.6-0.6-3.1-1.1-4.5c-5.3-2.9-12.2-3.5-17.6-2.6
	C94.8,248.1,94.8,248.5,94.8,248.5z M90,239.4c0,0.5,0.2,1,0.5,1.4v2.6c-0.3,0.4-0.5,0.8-0.5,1.4c0,0.5,0.2,1,0.5,1.4v2.6
	c-0.3,0.4-0.5,0.8-0.5,1.4c0,1.5,1.1,2,2.3,2.5c1.2-0.5,2.3-1,2.3-2.5c0-0.5-0.1-0.9-0.4-1.3l-0.1-2.7c0.3-0.4,0.5-0.8,0.5-1.4
	c0-0.5-0.2-1-0.5-1.4v-2.6c0.3-0.4,0.5-0.8,0.5-1.4c0-0.2,0-0.4-0.1-0.6c10.8-0.8,18.5,6.5,19.6,16.8c-1,0.4-1.3,0.8-1.8,1.7
	c-1.9-0.1-2.7,0.6-3.1,2.4c-0.6,2.4,0.5,3.4,2.9,4c-0.7,1.6-2.1,2.6-4,2.2c-1.4-0.4-2.5-1.7-2.5-3.1c0.2-0.5,0.4-0.9,0.4-1.4
	c0-1.5-1.2-2.7-2.7-2.7l0,0c-1.5,0-2.7,1.2-2.7,2.7c0,0.3,0.1,0.6,0.1,0.8c-0.4,1.4-1.6,2.4-3.1,2.4c-1.9,0-3-1.4-3.3-3.1
	c2.4,0,3.8-0.6,3.8-3.1c0-1.8-0.6-2.7-2.5-3.1c-0.4-2.2-1.6-2.4-3.4-2.6c-1.9,0.3-3,0.5-3.4,2.6c-1.8,0.4-2.5,1.3-2.5,3.1
	c0,2.5,1.4,3.1,3.8,3.1c-0.3,1.7-1.4,3.1-3.3,3.1c-1.5,0-2.7-1-3.2-2.4c0.1-0.3,0.1-0.6,0.1-0.8c0-1.5-1.2-2.7-2.7-2.7
	c-1.5,0-2.7,1.2-2.7,2.7c0,0.5,0.1,1,0.4,1.4c0,1.5-1,2.8-2.4,3.1c-1.8,0.5-3.2-0.6-4-2.2c2.3-0.6,3.5-1.6,2.9-4
	c-0.5-1.7-1.3-2.5-3.1-2.4c-0.4-1-0.8-1.4-1.8-1.7c1.1-10.3,8.8-17.6,19.6-16.8C90.1,239,90,239.2,90,239.4z M72.2,250.8
	c-0.5,1.4-0.8,2.9-1,4.4c0.6,0.3,1.1,0.8,1.5,1.5c2.1,0,3,1.3,3.4,2.9c0.5,1.9,0.1,3.7-2.6,4.5c-0.1,1.5,1,2.7,2.5,2.8
	c1.5,0.1,2.7-1,2.8-2.5c0-0.5-0.1-1.1-0.4-1.5c-0.3-0.5-0.4-1-0.4-1.6c0-1.8,1.5-3.3,3.3-3.3c1.8,0,3.3,1.5,3.3,3.3
	c0,0.3,0,0.6-0.1,0.8c0.5,1.4,2,2.1,3.4,1.6c0.8-0.3,1.4-0.9,1.6-1.7c-2.9-0.1-3.6-1.8-3.6-3.7c0-1.6,0.6-3.1,2.5-3.6
	c0.3-1.3,1.1-2,2.1-2.4c-1.2-0.9-1.4-2.6-0.6-3.8v-0.4C84.5,247.4,77.5,247.9,72.2,250.8z M89.4,239.4c-8.2-0.5-14.3,4.2-16.9,10.8
	c5.2-2.6,11.8-3.3,17.4-2.5v-1.4c-0.6-0.9-0.6-2.2,0-3.1V241C89.6,240.5,89.4,240,89.4,239.4z M122.8,269.4l0.2-0.1
	c0.4,0.3,0.7,0.5,1.1,0.6l0.6,0.1c0.2,1.2,0.6,2.1,1.4,3l-0.4,0.5c-1.9-0.8-4-1.7-6-2.4l0.1-0.6C121,270.4,122,270,122.8,269.4z
	 M123,270.1c-0.6,0.4-1.2,0.7-1.8,0.8c1.3,0.5,2.5,1,3.8,1.5c-0.4-0.6-0.6-1.2-0.8-1.9l-0.2,0C123.6,270.4,123.3,270.2,123,270.1z
	 M92,262h0.6c0.2,1.7,1.3,3.1,2.9,3.8l-0.1,0.6c-1,0-2-0.1-3-0.1c-1,0-2,0-3,0.1l-0.1-0.6C90.7,265.2,91.8,263.7,92,262z
	 M92.4,263.3c-0.4,1-1,1.9-1.9,2.5c0.6,0,1.2,0,1.9,0c0.6,0,1.2,0,1.9,0C93.4,265.2,92.8,264.3,92.4,263.3z M58.9,273.4l-0.4-0.5
	c0.8-0.9,1.2-1.8,1.4-3c0.8-0.1,1.1-0.2,1.7-0.7c1,0.7,1.9,1.1,3.1,1.2l0.1,0.6C62.9,271.8,60.8,272.6,58.9,273.4z M59.8,272.4
	c1.2-0.5,2.5-1,3.8-1.5c-0.7-0.2-1.3-0.5-1.8-0.8c-0.3,0.2-0.6,0.4-1,0.4l-0.2,0C60.4,271.2,60.1,271.8,59.8,272.4z M74.7,267.7v0.6
	c-1.9,0.4-3.9,0.9-5.8,1.4l-0.3-0.5c1.3-1.1,1.9-2.7,1.8-4.4l0.6-0.1C71.6,266.2,73,267.4,74.7,267.7z M73.4,268
	c-1-0.4-1.8-1.1-2.4-1.9c-0.1,1.1-0.5,2-1.2,2.9C71,268.5,72.2,268.2,73.4,268z M78.8,267.5l-0.2-0.6c1.2-0.7,1.9-1.7,2.3-3h0.4
	c0.4,0,0.7-0.1,1-0.2c0.8,1.1,1.7,1.9,3,2.3l-0.1,0.6C83,266.9,80.9,267.2,78.8,267.5z M81.3,264.6c-0.3,0.8-0.8,1.5-1.4,2.1
	c1.3-0.2,2.7-0.4,4.1-0.5c-0.8-0.4-1.4-1-1.9-1.7C81.8,264.5,81.6,264.6,81.3,264.6z M99.5,266.7l-0.1-0.6c1.3-0.4,2.3-1.2,3-2.3
	c0.4,0.1,0.6,0.2,1,0.2h0.4c0.5,1.3,1.2,2.3,2.3,3l-0.2,0.6C103.8,267.2,101.6,266.9,99.5,266.7z M103.4,264.6c-0.2,0-0.5,0-0.7-0.1
	c-0.5,0.7-1.2,1.3-1.9,1.7c1.4,0.1,2.7,0.3,4.1,0.5c-0.6-0.6-1.1-1.2-1.4-2C103.4,264.7,103.4,264.6,103.4,264.6z M116.1,269.2
	l-0.3,0.5c-1.9-0.6-3.8-1.1-5.8-1.4v-0.6c1.6-0.4,3-1.4,3.7-3l0.6,0.1C114.2,266.5,114.8,268.2,116.1,269.2z M114.9,268.9
	c-0.6-0.8-1-1.8-1.2-2.9c-0.6,0.9-1.4,1.6-2.4,1.9C112.5,268.2,113.7,268.5,114.9,268.9z M115.8,258c-1.4-0.4-2.9,0.5-3.2,1.9
	c-0.4,1.4,0.5,2.9,1.9,3.2c1.4,0.4,2.9-0.5,3.2-1.9C118.1,259.8,117.2,258.4,115.8,258z M115.9,257.6c1.7,0.4,2.6,2.1,2.2,3.7
	c-0.4,1.7-2.1,2.6-3.8,2.2c-1.6-0.4-2.6-2.1-2.2-3.7c0,0,0,0,0,0C112.6,258.2,114.2,257.2,115.9,257.6z M118.2,252.8
	c-0.8,0-1.5,0.7-1.5,1.5c0,0.8,0.7,1.5,1.5,1.5s1.5-0.7,1.5-1.5S119,252.8,118.2,252.8z M118.2,252.4c1.1,0,1.9,0.8,1.9,1.9
	s-0.8,1.9-1.9,1.9c-1.1,0-1.9-0.8-1.9-1.9S117.2,252.4,118.2,252.4z M117,247.5c-0.8,0-1.5,0.7-1.5,1.5s0.7,1.5,1.5,1.5
	s1.5-0.7,1.5-1.5C118.5,248.2,117.8,247.6,117,247.5C117,247.5,117,247.5,117,247.5z M117,247.1c1.1,0,1.9,0.8,1.9,1.9
	s-0.8,1.9-1.9,1.9c-1.1,0-1.9-0.8-1.9-1.9S115.9,247.1,117,247.1z M135.3,261.4c-0.8,0-1.5,0.7-1.5,1.5c0,0.8,0.7,1.5,1.5,1.5
	c0.8,0,1.5-0.7,1.5-1.5C136.8,262.1,136.2,261.4,135.3,261.4z M135.3,261c1.1,0,1.9,0.8,1.9,1.9c0,1.1-0.8,1.9-1.9,1.9
	s-1.9-0.8-1.9-1.9C133.4,261.9,134.3,261,135.3,261z M134.1,256.2c-0.8,0-1.5,0.7-1.5,1.5c0,0.8,0.7,1.5,1.5,1.5
	c0.8,0,1.5-0.7,1.5-1.5C135.6,256.9,134.9,256.2,134.1,256.2z M134.1,255.8c1.1,0,1.9,0.8,1.9,1.9c0,1.1-0.8,1.9-1.9,1.9
	c-1.1,0-1.9-0.8-1.9-1.9C132.2,256.6,133.1,255.8,134.1,255.8z M131.9,251.6c-0.8,0-1.5,0.7-1.5,1.5c0,0.8,0.7,1.4,1.5,1.4
	c0.8,0,1.5-0.7,1.5-1.5C133.4,252.2,132.7,251.6,131.9,251.6z M131.9,251.1c1.1,0,1.9,0.8,1.9,1.9s-0.8,1.9-1.9,1.9
	c-1.1,0-1.9-0.8-1.9-1.9S130.8,251.1,131.9,251.1z M128.4,247.5c-0.8,0-1.5,0.7-1.5,1.5s0.7,1.5,1.5,1.5c0.8,0,1.5-0.7,1.5-1.5
	S129.2,247.5,128.4,247.5z M128.4,247c1.1,0,1.9,0.8,1.9,1.9s-0.8,1.9-1.9,1.9c-1.1,0-1.9-0.8-1.9-1.9
	C126.5,247.9,127.3,247,128.4,247z M124.1,244.3c-0.8,0-1.5,0.7-1.5,1.5s0.7,1.5,1.5,1.5s1.5-0.7,1.5-1.5S124.9,244.3,124.1,244.3z
	 M124.1,243.9c1.1,0,1.9,0.8,1.9,1.9s-0.8,1.9-1.9,1.9c-1.1,0-1.9-0.8-1.9-1.9S123,243.9,124.1,243.9z M119.4,242.5
	c-0.8,0-1.5,0.7-1.5,1.5c0,0.8,0.7,1.5,1.5,1.5s1.5-0.7,1.5-1.5C120.9,243.2,120.2,242.5,119.4,242.5z M119.4,242.1
	c1.1,0,1.9,0.8,1.9,1.9s-0.8,1.9-1.9,1.9s-1.9-0.8-1.9-1.9S118.3,242.1,119.4,242.1z M114.7,242.9c-0.8,0-1.5,0.7-1.5,1.5
	c0,0.8,0.7,1.5,1.5,1.5s1.5-0.7,1.5-1.5C116.1,243.6,115.5,242.9,114.7,242.9z M114.7,242.5c1.1,0,1.9,0.8,1.9,1.9s-0.8,1.9-1.9,1.9
	s-1.9-0.8-1.9-1.9C112.7,243.3,113.6,242.5,114.7,242.5z M111.2,238.9c-0.8,0-1.5,0.7-1.5,1.5c0,0.8,0.7,1.5,1.5,1.5
	s1.5-0.7,1.5-1.5C112.7,239.6,112,238.9,111.2,238.9z M111.2,238.5c1.1,0,1.9,0.8,1.9,1.9s-0.8,1.9-1.9,1.9c-1.1,0-1.9-0.8-1.9-1.9
	C109.3,239.4,110.1,238.5,111.2,238.5z M106.6,235.9c-0.8,0-1.5,0.7-1.5,1.5c0,0.8,0.7,1.5,1.5,1.5c0.8,0,1.5-0.7,1.5-1.5
	C108.1,236.6,107.4,235.9,106.6,235.9z M106.6,235.5c1.1,0,1.9,0.8,1.9,1.9s-0.8,1.9-1.9,1.9s-1.9-0.8-1.9-1.9
	S105.6,235.5,106.6,235.5z M101.9,234.2c-0.8,0-1.5,0.7-1.5,1.5c0,0.8,0.7,1.5,1.5,1.5c0.8,0,1.5-0.7,1.5-1.5
	C103.4,234.9,102.7,234.2,101.9,234.2z M101.9,233.8c1.1,0,1.9,0.8,1.9,1.9s-0.8,1.9-1.9,1.9c-1.1,0-1.9-0.8-1.9-1.9
	C100,234.6,100.8,233.8,101.9,233.8z M97.1,233.4c-0.8,0-1.5,0.7-1.5,1.5c0,0.8,0.7,1.5,1.5,1.5s1.5-0.7,1.5-1.5
	C98.5,234,97.9,233.4,97.1,233.4z M97.1,232.9c1.1,0,1.9,0.8,1.9,1.9s-0.8,1.9-1.9,1.9s-1.9-0.8-1.9-1.9S96,232.9,97.1,232.9z
	 M51.2,272.1c1.3-0.7,1.8-2.3,1.1-3.6c-0.7-1.3-2.3-1.8-3.6-1.1c-1.3,0.7-1.8,2.3-1.1,3.6C48.3,272.3,49.9,272.8,51.2,272.1z
	 M51.4,272.5c-1.5,0.8-3.4,0.3-4.2-1.2c-0.8-1.5-0.3-3.3,1.2-4.1c0,0,0,0,0,0c1.5-0.8,3.4-0.3,4.2,1.2
	C53.5,269.8,52.9,271.7,51.4,272.5z M70.2,263.1c1.4-0.4,2.3-1.8,1.9-3.2c-0.4-1.4-1.8-2.3-3.2-1.9c-1.4,0.4-2.3,1.8-1.9,3.2
	C67.4,262.7,68.8,263.5,70.2,263.1z M70.3,263.6c-1.7,0.4-3.3-0.6-3.8-2.2c0,0,0,0,0,0c-0.4-1.7,0.6-3.3,2.2-3.7
	c1.7-0.4,3.4,0.6,3.8,2.2S72,263.1,70.3,263.6z M92.4,260.4c1.5,0,2.7-1.2,2.7-2.6c0-1.4-1.2-2.6-2.7-2.6c-1.5,0-2.7,1.2-2.7,2.6
	C89.7,259.2,90.9,260.4,92.4,260.4z M92.4,260.8c-1.7,0-3.1-1.4-3.1-3.1c0-1.7,1.4-3.1,3.1-3.1c1.7,0,3.1,1.4,3.1,3.1
	C95.4,259.4,94.1,260.8,92.4,260.8z M66.5,255.8c0.8,0,1.5-0.7,1.5-1.5s-0.7-1.5-1.5-1.5c-0.8,0-1.5,0.7-1.5,1.5
	C65,255.1,65.7,255.8,66.5,255.8z M66.5,256.2c-1.1,0-1.9-0.8-1.9-1.9s0.8-1.9,1.9-1.9c1.1,0,1.9,0.8,1.9,1.9S67.6,256.2,66.5,256.2
	z M67.7,250.5c0.8,0,1.5-0.7,1.5-1.5s-0.7-1.5-1.5-1.5c-0.8,0-1.5,0.7-1.5,1.5S66.9,250.5,67.7,250.5z M67.7,250.9
	c-1.1,0-1.9-0.8-1.9-1.9s0.8-1.9,1.9-1.9s1.9,0.8,1.9,1.9S68.8,250.9,67.7,250.9z M49.4,264.4c0.8,0,1.5-0.7,1.5-1.5
	c0-0.8-0.7-1.5-1.5-1.5c-0.8,0-1.5,0.7-1.5,1.5C47.9,263.7,48.6,264.4,49.4,264.4z M49.4,264.8c-1.1,0-1.9-0.8-1.9-1.9
	c0-1.1,0.8-1.9,1.9-1.9s1.9,0.8,1.9,1.9C51.3,264,50.4,264.8,49.4,264.8z M50.6,259.1c0.8,0,1.5-0.7,1.5-1.5c0-0.8-0.7-1.5-1.5-1.5
	c-0.8,0-1.5,0.7-1.5,1.5C49.1,258.5,49.8,259.1,50.6,259.1z M50.6,259.5c-1.1,0-1.9-0.8-1.9-1.9c0-1.1,0.8-1.9,1.9-1.9
	s1.9,0.8,1.9,1.9C52.5,258.7,51.6,259.5,50.6,259.5z M52.8,254.5c0.8,0,1.5-0.7,1.5-1.5c0-0.8-0.6-1.4-1.5-1.4
	c-0.8,0-1.5,0.7-1.5,1.5C51.3,253.9,52,254.5,52.8,254.5z M52.8,254.9c-1.1,0-1.9-0.8-1.9-1.9s0.8-1.9,1.9-1.9s1.9,0.8,1.9,1.9
	S53.9,254.9,52.8,254.9z M56.3,250.4c0.8,0,1.5-0.7,1.5-1.5s-0.7-1.5-1.5-1.5c-0.8,0-1.5,0.7-1.5,1.5S55.5,250.4,56.3,250.4z
	 M56.3,250.8c-1.1,0-1.9-0.8-1.9-1.9s0.8-1.9,1.9-1.9s1.9,0.8,1.9,1.9S57.4,250.8,56.3,250.8z M60.7,247.3c0.8,0,1.5-0.7,1.5-1.5
	s-0.7-1.5-1.5-1.5c-0.8,0-1.5,0.7-1.5,1.5S59.8,247.3,60.7,247.3z M60.7,247.7c-1.1,0-1.9-0.8-1.9-1.9s0.8-1.9,1.9-1.9
	s1.9,0.8,1.9,1.9S61.7,247.7,60.7,247.7z M65.3,245.5c0.8,0,1.5-0.7,1.5-1.5c0-0.8-0.7-1.5-1.5-1.5c-0.8,0-1.5,0.7-1.5,1.5
	C63.8,244.8,64.5,245.5,65.3,245.5z M65.3,245.9c-1.1,0-1.9-0.8-1.9-1.9s0.8-1.9,1.9-1.9s1.9,0.8,1.9,1.9
	C67.2,245,66.4,245.9,65.3,245.9z M70.1,245.9c0.8,0,1.5-0.7,1.5-1.5s-0.7-1.5-1.5-1.5c-0.8,0-1.5,0.7-1.5,1.5
	S69.2,245.9,70.1,245.9z M70.1,246.3c-1.1,0-1.9-0.8-1.9-1.9s0.8-1.9,1.9-1.9s1.9,0.8,1.9,1.9S71.1,246.3,70.1,246.3z M73.6,241.9
	c0.8,0,1.5-0.7,1.5-1.5c0-0.8-0.7-1.5-1.5-1.5s-1.5,0.7-1.5,1.5C72,241.2,72.7,241.9,73.6,241.9z M73.6,242.3
	c-1.1,0-1.9-0.8-1.9-1.9s0.8-1.9,1.9-1.9c1.1,0,1.9,0.8,1.9,1.9S74.6,242.3,73.6,242.3z M78.1,238.9c0.8,0,1.5-0.7,1.5-1.5
	s-0.7-1.5-1.5-1.5c-0.8,0-1.5,0.7-1.5,1.5S77.3,238.9,78.1,238.9z M78.1,239.3c-1.1,0-1.9-0.8-1.9-1.9s0.8-1.9,1.9-1.9
	c1.1,0,1.9,0.8,1.9,1.9S79.1,239.3,78.1,239.3z M82.8,237.1c0.8,0,1.5-0.7,1.5-1.5s-0.7-1.5-1.5-1.5s-1.5,0.7-1.5,1.5
	S82,237.1,82.8,237.1z M82.8,237.6c-1.1,0-1.9-0.8-1.9-1.9s0.8-1.9,1.9-1.9c1.1,0,1.9,0.8,1.9,1.9S83.9,237.6,82.8,237.6z
	 M92.4,251.6c0.8,0,1.5-0.7,1.5-1.5s-0.7-1.5-1.5-1.5c-0.8,0-1.5,0.7-1.5,1.5C90.9,250.9,91.6,251.6,92.4,251.6z M92.4,252
	c-1.1,0-1.9-0.8-1.9-1.9s0.8-1.9,1.9-1.9c1.1,0,1.9,0.8,1.9,1.9S93.4,252,92.4,252z M92.4,246.2c0.8,0,1.5-0.7,1.5-1.5
	s-0.7-1.5-1.5-1.5c-0.8,0-1.5,0.7-1.5,1.5S91.6,246.2,92.4,246.2z M92.4,246.7c-1.1,0-1.9-0.8-1.9-1.9s0.8-1.9,1.9-1.9
	c1.1,0,1.9,0.8,1.9,1.9S93.4,246.7,92.4,246.7z M92.4,240.9c0.8,0,1.5-0.7,1.5-1.5c0-0.8-0.7-1.5-1.5-1.5c-0.8,0-1.5,0.7-1.5,1.5
	C90.9,240.2,91.6,240.9,92.4,240.9z M92.4,241.3c-1.1,0-1.9-0.8-1.9-1.9s0.8-1.9,1.9-1.9c1.1,0,1.9,0.8,1.9,1.9
	S93.4,241.3,92.4,241.3z M87.7,236.3c0.8,0,1.5-0.7,1.5-1.5c0-0.8-0.7-1.5-1.5-1.5c-0.8,0-1.5,0.7-1.5,1.5
	C86.2,235.6,86.8,236.3,87.7,236.3z M87.7,236.7c-1.1,0-1.9-0.8-1.9-1.9s0.8-1.9,1.9-1.9s1.9,0.8,1.9,1.9
	C89.6,235.9,88.7,236.7,87.7,236.7z M136.1,267.5c-1.3-0.7-2.9-0.2-3.6,1c0,0,0,0,0,0c-0.7,1.3-0.2,2.9,1.1,3.6s2.9,0.2,3.6-1
	C137.8,269.8,137.3,268.2,136.1,267.5z M136.3,267.1c1.5,0.8,2,2.7,1.2,4.2c-0.8,1.5-2.7,2-4.2,1.2c-1.5-0.8-2-2.6-1.2-4.1
	c0,0,0,0,0-0.1C132.9,266.8,134.7,266.3,136.3,267.1z M55,268.1c-0.4-1.1-0.9-1.8-2-2.2c0.7-9.1,3.1-13.3,11.4-17.4
	c0.7,0.2,0.7,0.4,0.7,0.5c0,1.2,0.7,1.8,1.6,2.5c-1.5,0.3-2.8,1-2.8,2.8c0,1.5,1,2.3,2.3,2.6c-0.4,0.8-0.5,1.2-0.4,2.1
	c-1.7,0.8-2,1.9-1.6,3.6c0.6,2.4,2.1,2.7,4.4,2.1c0.4,3.8-3.8,5.2-5.9,2.5c0-0.2,0-0.4-0.1-0.7c-0.4-1.4-1.8-2.3-3.3-1.9
	c-1.4,0.4-2.3,1.8-1.9,3.3c0.1,0.5,0.4,0.8,0.7,1.2c0.1,1.3-0.5,2.6-1.7,3.2c-1.2,0.7-2.2,0.4-3.4,0C54.9,271.4,55.9,270.4,55,268.1
	z M55.1,258.3c-0.8,2-1.2,4.4-1.5,7.2c1,0.4,1.6,1.4,2,2.4c0.6,1.5,0.6,3.1-1.1,4.2c0.5,0,1-0.1,1.4-0.3c0.9-0.5,1.4-1.5,1.4-2.4
	c-0.3-0.4-0.5-0.8-0.7-1.3c-0.4-1.8,0.6-3.6,2.4-4c1.8-0.5,3.6,0.6,4,2.4c0,0,0,0,0,0l0.1,0.6c1.5,1.8,4.6,0.9,4.7-1.5
	c-2.8,0.6-4-0.8-4.4-2.7c-0.4-1.6-0.2-3.1,1.6-4.1c0-0.5,0.1-1,0.2-1.3c-1-0.4-1.8-1.3-2-2.4c-1.6,0.4-3.4,0.8-4.9,1.4
	C57,256.9,55.9,257.6,55.1,258.3z M64.4,249.2c-4.6,2.4-7.3,4.8-8.9,8.3c0.8-0.6,1.8-1.1,2.8-1.5c1.5-0.6,3.4-1.1,4.9-1.4v-0.2
	c0-1.4,0.8-2.6,2.1-3.1C64.8,250.7,64.5,250,64.4,249.2z M128.4,272.4c-1.2-0.7-1.8-1.9-1.7-3.2c0.3-0.4,0.5-0.7,0.7-1.2
	c0.4-1.4-0.5-2.9-1.9-3.3c0,0,0,0,0,0c-1.4-0.4-2.9,0.5-3.3,1.9c-0.1,0.2-0.1,0.4-0.1,0.7c-2,2.7-6.2,1.3-5.9-2.5
	c2.3,0.6,3.8,0.3,4.4-2.1c0.5-1.7,0.1-2.8-1.6-3.6c0.1-1,0-1.3-0.4-2.1c1.3-0.4,2.3-1.2,2.3-2.7c0-1.8-1.3-2.4-2.8-2.8
	c0.9-0.7,1.6-1.3,1.6-2.5c0-0.1,0-0.2,0-0.3l0.6-0.2c8.3,4.1,10.8,8.4,11.5,17.4c-1.1,0.4-1.6,1.1-2,2.2c-0.9,2.3,0.1,3.2,2.1,4.2
	C130.6,272.8,129.7,273.1,128.4,272.4z M121.5,255c-0.2,1.1-1,2-2,2.4c0.1,0.4,0.2,0.8,0.2,1.3c1.8,1,2,2.5,1.6,4.1
	c-0.5,1.9-1.7,3.3-4.4,2.7c0.1,2.4,3.2,3.4,4.7,1.5c0-0.2,0-0.4,0.1-0.6c0.5-1.8,2.3-2.9,4.1-2.4c1.8,0.4,2.8,2.2,2.4,4
	c-0.1,0.5-0.4,1-0.7,1.3c-0.1,1.6,1.2,2.9,2.8,2.8c-1.7-1.2-1.7-2.7-1.1-4.2c0.4-1,1-2,1.9-2.4c-0.2-2.9-0.7-5.2-1.5-7.3
	c-0.8-0.7-1.9-1.4-3.2-1.9C124.9,255.8,123.1,255.3,121.5,255z M120.3,249.1c0,0.8-0.4,1.6-0.8,2.1c1.2,0.5,2.1,1.7,2.1,3.1v0.2
	c1.7,0.4,3.4,0.8,4.9,1.4c1.1,0.4,2,1,2.8,1.5C127.7,254.1,124.9,251.6,120.3,249.1z M110.6,277.5l-4.7-3.2l5.7-0.6l4.7,3.2
	L110.6,277.5z M101.9,275.6c-1.1,0-1.9-0.8-1.9-1.9c0-1.1,0.8-1.9,1.9-1.9s1.9,0.8,1.9,1.9C103.8,274.8,102.9,275.6,101.9,275.6z
	 M101.9,275.2c0.8,0,1.5-0.7,1.5-1.5c0-0.8-0.7-1.5-1.5-1.5c-0.8,0-1.5,0.7-1.5,1.5C100.4,274.5,101,275.2,101.9,275.2z M64.5,280.1
	c0.8,0,1.5-0.7,1.5-1.5s-0.7-1.5-1.5-1.5c-0.8,0-1.5,0.7-1.5,1.5S63.7,280.1,64.5,280.1z M64.5,280.5c-1.1,0-1.9-0.8-1.9-1.9
	c0-1.1,0.8-1.9,1.9-1.9s1.9,0.8,1.9,1.9C66.4,279.7,65.5,280.5,64.5,280.5z M82.8,275.2c0.8,0,1.5-0.7,1.5-1.5
	c0-0.8-0.7-1.5-1.5-1.5s-1.5,0.7-1.5,1.5C81.4,274.5,82,275.2,82.8,275.2z M82.8,275.6c-1.1,0-1.9-0.8-1.9-1.9
	c0-1.1,0.8-1.9,1.9-1.9c1.1,0,1.9,0.8,1.9,1.9C84.7,274.8,83.9,275.6,82.8,275.6z M120.2,280.1c0.8,0,1.5-0.7,1.5-1.5
	s-0.7-1.5-1.5-1.5s-1.5,0.7-1.5,1.5S119.4,280.1,120.2,280.1z M120.2,280.5c-1.1,0-1.9-0.8-1.9-1.9c0-1.1,0.8-1.9,1.9-1.9
	s1.9,0.8,1.9,1.9C122.1,279.7,121.3,280.5,120.2,280.5z M74,277.5l-5.7-0.6l4.7-3.2l5.7,0.6C78.7,274.3,74,277.5,74,277.5z
	 M97.1,273.3l-4.8-1.8l-4.8,1.8l4.8,1.8L97.1,273.3z M98.3,273.3l-6,2.2l-6-2.2l6-2.2L98.3,273.3z M621.8,316.7v62.8H610v-5.9
	c-3.1,5.3-8.5,7.1-13.5,7.1c-13.6,0-19.3-12.2-19.3-25c0-16.1,9-24,19-24c7.8,0,11.4,4.3,13.3,7.3l0.2-22.3L621.8,316.7L621.8,316.7
	z M589.6,356.7c0,5.5,2.2,14.1,10,14.1c7.7,0,10.7-6.5,10.7-13.4c0-7.4-2-15-10.4-15C592.2,342.4,589.6,349.3,589.6,356.7z
	 M206.6,324v21.3h19.4c6.1,0,12.6-1.6,12.6-10.8c0-9.7-7-10.5-11.1-10.5C227.5,324,206.6,324,206.6,324z M206.6,352.6v27h-8.4v-62.8
	h28.7c10.2,0,20.4,3.6,20.4,16.9c0,9.2-4.7,12.7-8.6,15c3.5,1.5,7.1,3.1,7.4,11.8l0.5,11.4c0.1,3.5,0.5,4.8,3.1,6.3v1.4h-10.3
	c-1.2-3.8-1.5-13.4-1.5-15.8c0-5.2-1-11.2-11.1-11.2L206.6,352.6L206.6,352.6z M262,353.1h25.1c-0.4-7.1-3.4-13.7-12.6-13.7
	C267.5,339.4,262,346,262,353.1z M286.8,365.3h7.6c-0.2,2.2-2.3,8.6-8,12.5c-2.1,1.4-5,3.2-12.2,3.2c-12.7,0-20.2-9.7-20.2-22.9
	c0-14.2,6.7-25.5,21.7-25.5c13.1,0,19.4,10.5,19.4,26.7h-33c0,9.5,4.4,15,13.1,15C282.3,374.3,286.5,368.7,286.8,365.3z
	 M328.9,363.8v-7.6c-1.2,1-3.1,1.7-12.5,2.9c-3.7,0.5-9.7,1.7-9.7,7.4c0,5,2.5,8,8.2,8C322,374.5,328.9,369.9,328.9,363.8z
	 M308.1,347.7h-7c0.4-10.9,7.5-15.2,18.6-15.2c3.6,0,16.7,1.1,16.7,12.7v26.4c0,1.9,1,2.7,2.5,2.7c0.7,0,1.6-0.2,2.5-0.4v5.6
	c-1.3,0.4-2.4,0.9-4.1,0.9c-6.7,0-7.8-3.5-8-7c-2.9,3.2-7.5,7.4-16.3,7.4c-8.3,0-14.2-5.3-14.2-13.2c0-3.8,1.1-12.8,13.7-14.4
	l12.5-1.6c1.8-0.2,4-0.9,4-5.4c0-4.8-3.5-7.4-10.6-7.4C309.8,338.9,308.6,344.2,308.1,347.7z M354.5,316.7v62.8H347v-62.8H354.5z
	 M428.2,379.6h-12.1v-28.2c0-6.9-3-9.2-6.6-9.2c-6,0-8.2,4-8.2,9.5v27.9h-12.1v-28c0-3.9,0-9.5-7.2-9.5c-5.7,0-7.5,4-7.5,9.1v28.3
	h-12.1v-46.6h11.6v6.8c1.7-3.1,5.1-8,13.2-8c6.6,0,9.7,2.5,12.8,7.4c1.6-2.3,4.9-7.4,12.2-7.4c9,0,16,5.3,16,15.6L428.2,379.6
	L428.2,379.6z M461.2,362.9v-5.9c-1.2,1-3.2,1.8-8.2,2.5c-4.5,0.8-8.2,1.9-8.2,7c0,4.3,3.3,5.6,5.6,5.6
	C455.7,372,461.2,368.6,461.2,362.9z M473,345.3v25.2c0,5.5,1.2,6.7,2.7,7.3v1.8h-13.1c-0.7-2.2-0.8-2.9-1.1-5.5
	c-2.8,2.9-6.6,6.7-14.9,6.7c-6.9,0-14-4-14-13.6c0-9.1,5.7-13.7,13.4-14.9l10.9-1.7c1.9-0.2,4.2-1.1,4.2-3.7c0-5.2-4.8-5.4-8-5.4
	c-6,0-7.1,3.8-7.4,6.5h-11.7c1.4-14.3,11.2-16.3,20.6-16.3C461.2,331.8,473,333.8,473,345.3z M489.9,356.7c0,5.5,2.2,14.1,10,14.1
	c7.7,0,10.7-6.5,10.7-13.4c0-7.4-2.1-15-10.4-15C492.5,342.4,489.9,349.3,489.9,356.7z M522.2,316.7v62.8h-11.8v-5.9
	c-3.1,5.3-8.5,7.1-13.5,7.1c-13.6,0-19.3-12.2-19.3-25c0-16.1,8.9-24,19-24c7.8,0,11.4,4.3,13.3,7.3l0.2-22.3L522.2,316.7
	L522.2,316.7z M529.3,333.1h11.6v8c2.7-4.7,5.4-9.3,12.8-9.3c0.8,0,1.6,0.1,2.3,0.2v12.5c-1-0.2-2.3-0.2-3.5-0.2
	c-9.4,0-11.2,5.9-11.2,11.1v24.2h-12.1L529.3,333.1L529.3,333.1z M571.9,333.1v46.6h-12.1v-46.6
	C559.8,333.1,571.9,333.1,571.9,333.1z M571.9,316.1v11.4h-12.1v-11.4H571.9z"/>
</svg>
